<?xml version="1.0" encoding="UTF-8"?>
<svg width="66px" height="66px" viewBox="0 0 22 22" version="1.1" xmlns="http://www.w3.org/2000/svg"
    xmlns:xlink="http://www.w3.org/1999/xlink">
    <title>icon2</title>
    <g id="Page-1" stroke="none" stroke-width="1" fill="none" fill-rule="evenodd" stroke-linecap="round"
        stroke-linejoin="round">
        <g id="icon2" stroke="#F7B500">
            <path
                d="M13.0666667,9.86666667 L15.2666667,11.3333333 M15.2666667,5.46666667 C15.6716755,5.46666667 16,5.13834215 16,4.73333333 C16,4.32832452 15.6716755,4 15.2666667,4 C14.8616579,4 14.5333333,4.32832452 14.5333333,4.73333333 C14.5333333,5.13834215 14.8616579,5.46666667 15.2666667,5.46666667 Z M9.03333333,8.76666667 L9.05162106,6.2 L12.3516211,6.2 L13.0666667,6.2 L7.93333333,14.2666667 L5,14.2666667 M13.0666667,7.66666667 L10.8666667,11.3333333 L11.2333333,12.0666667 L14.5333333,7.3 L13.0666667,6.2 M10.1333333,11.3333333 L13.8,13.9 L13.8,17.5666667"
                id="Group" transform="translate(10.500000, 10.783333) scale(-1, 1) translate(-10.500000, -10.783333) ">
            </path>
        </g>
    </g>
</svg>