<?xml version="1.0" encoding="UTF-8"?>
<svg width="78px" height="78px" viewBox="0 0 26 26" version="1.1" xmlns="http://www.w3.org/2000/svg" xmlns:xlink="http://www.w3.org/1999/xlink">
    <title>icon-5</title>
    <g id="Page-1" stroke="none" stroke-width="1" fill="none" fill-rule="evenodd">
        <g id="icon-5" stroke="#016DDA">
            <path d="M15.0454545,4 L15.0454545,6.31818182 M5,9.40909091 L18.9090909,9.40909091 M8.86363636,4 L8.86363636,6.31818182 M7.31818182,12.5 L8.86363636,12.5 M10.4090909,12.5 L16.5909091,12.5 M7.31818182,15.5909091 L8.86363636,15.5909091 M10.4090909,15.5909091 L15.0454545,15.5909091 M14.2727273,18.6818182 L5,18.6818182 L5,6.31818182 L18.9090909,6.31818182 L18.9090909,14.0454545 M18.1363636,21.7727273 C20.2701911,21.7727273 22,20.0429184 22,17.9090909 C22,15.7752635 20.2701911,14.0454545 18.1363636,14.0454545 C16.0025362,14.0454545 14.2727273,15.7752635 14.2727273,17.9090909 C14.2727273,20.0429184 16.0025362,21.7727273 18.1363636,21.7727273 Z M17.75,17.1363636 L18.9090909,17.9090909 L17.75,18.6818182 L17.75,17.1363636 Z" id="Group"></path>
        </g>
    </g>
</svg>