<?xml version="1.0" encoding="UTF-8"?>
<svg width="78px" height="78px" viewBox="0 0 26 26" version="1.1" xmlns="http://www.w3.org/2000/svg" xmlns:xlink="http://www.w3.org/1999/xlink">
    <title>icon-4</title>
    <g id="Page-1" stroke="none" stroke-width="1" fill="none" fill-rule="evenodd">
        <g id="icon-4" stroke="#016DDA">
            <path d="M13,14 C14.8074774,14 16.2727273,12.5347501 16.2727273,10.7272727 C16.2727273,8.91979536 14.8074774,7.45454545 13,7.45454545 C11.1925226,7.45454545 9.72727273,8.91979536 9.72727273,10.7272727 C9.72727273,12.5347501 11.1925226,14 13,14 Z M8.09090909,21.3636364 L8.09090909,18.9090909 C8.09090909,16.1978749 10.288784,14 13,14 C15.711216,14 17.9090909,16.1978749 17.9090909,18.9090909 L17.9090909,21.3636364 M13.8181818,7.45454545 C14.1485051,6.09281407 15.4669366,5 17.0909091,5 C18.8681767,5 20.3476982,6.46524991 20.3636364,8.27272727 C20.3476982,10.0802046 18.8681767,11.5454545 17.0909091,11.5454545 L16.2727273,11.5454545 L17.0909091,11.5454545 C19.7807178,11.5454545 22,13.7433294 22,16.4545455 L22,18.0909091 M12.1818182,7.45454545 C11.8514949,6.09281407 10.5330634,5 8.90909091,5 C7.1318233,5 5.65230184,6.46524991 5.63636364,8.27272727 C5.65230184,10.0802046 7.1318233,11.5454545 8.90909091,11.5454545 L9.72727273,11.5454545 L8.90909091,11.5454545 C6.2192822,11.5454545 4,13.7433294 4,16.4545455 L4,18.0909091" id="People"></path>
        </g>
    </g>
</svg>